<?xml version="1.0" standalone="no"?>
<!DOCTYPE svg PUBLIC "-//W3C//DTD SVG 20010904//EN"
 "http://www.w3.org/TR/2001/REC-SVG-20010904/DTD/svg10.dtd">
<svg version="1.0" xmlns="http://www.w3.org/2000/svg"
 width="766.000000pt" height="766.000000pt" viewBox="0 0 766.000000 766.000000"
 preserveAspectRatio="xMidYMid meet">

<g transform="translate(0.000000,766.000000) scale(0.100000,-0.100000)"
fill="#000000" stroke="none">
<path d="M3737 7512 c-374 -369 -3497 -3493 -3497 -3499 0 -4 41 -49 91 -99
l92 -92 -94 -97 -93 -96 892 -892 892 -892 90 90 c49 49 90 94 90 100 0 5
-398 408 -885 895 -487 487 -885 889 -885 895 0 6 763 773 1695 1705 l1695
1695 1700 -1700 1700 -1700 -1700 -1700 -1700 -1700 95 -95 96 -95 1685 1685
c926 927 1689 1693 1695 1704 10 16 -1 31 -75 105 -47 48 -86 91 -86 96 0 6
38 48 85 95 47 47 85 88 85 92 0 9 -3572 3579 -3581 3577 -2 0 -39 -35 -82
-77z"/>
<path d="M2335 5310 l-1480 -1480 1483 -1483 1482 -1482 1482 1482 1483 1483
-1480 1480 c-814 814 -1482 1480 -1485 1480 -3 0 -671 -666 -1485 -1480z
m2695 -1485 l0 -1405 -1215 0 -1215 0 0 485 0 485 611 0 610 0 -3 38 -3 37
-607 3 -608 2 0 355 0 355 608 2 607 3 3 38 3 37 -610 0 -611 0 0 485 0 485
1215 0 1215 0 0 -1405z"/>
</g>
</svg>
